# xmcd
#
# Track frame offsets: 
#        150
#        22267
#        40420
#        55565
#        69350
#        85447
#        100170
#        120755
#        135647
#        150597
#        172815
#        188400
#        221450
#        239832
#        254552
#        268682
#        281695
#        298257
#        313177
#        326510
#
# Disc length: 4589 seconds
#
# Revision: 3
# Processed by: cddbd v1.5.2PL0 Copyright (c) Steve Scherf et al.
# Submitted via: ExactAudioCopy v0.99pb4
#
DISCID=2511eb14
DTITLE=Various Artist - Big Hits Of The 70s
DYEAR=1997
DGENRE=Classic Rock
TTITLE0=Knack  - My Sharona
TTITLE1=Sweet - Ballroom Blitz
TTITLE2=Raspberries - Go All The Way
TTITLE3=Pilot - Magic
TTITLE4=Bob Welch - Ebony Eyes
TTITLE5=Tavares - It Only Takes A Minute
TTITLE6=Blondie - Heart Of Glass
TTITLE7=Maxine Nightingale - Right Back Where We Started From
TTITLE8=Cornelius Brothers and Sister Rose - Too Late To Turn Back Now
TTITLE9=Ike and Tina Turner - Proud Mary
TTITLE10=Sylvers - Boogie Fever
TTITLE11=A Taste of Honey - Boogie Oogie Oogie
TTITLE12=Hot Chocolate - You Sexy Thing
TTITLE13=Al Green - Let's Stay Together
TTITLE14=Nick Gilder - Hot Child In The City
TTITLE15=Blue Swede - Hooked On A Feeling
TTITLE16=Sugarloaf - Green-Eyed Lady
TTITLE17=Hollies - Long Cool Woman (In A Black Dress)
TTITLE18=Dr. Hook - Sharing The Night Together
TTITLE19=Little River Band - Lonesome Loser
EXTD=
EXTT0=
EXTT1=
EXTT2=
EXTT3=
EXTT4=
EXTT5=
EXTT6=
EXTT7=
EXTT8=
EXTT9=
EXTT10=
EXTT11=
EXTT12=
EXTT13=
EXTT14=
EXTT15=
EXTT16=
EXTT17=
EXTT18=
EXTT19=
PLAYORDER=
